<svg width="157" height="208" viewBox="0 0 157 208" fill="none" xmlns="http://www.w3.org/2000/svg">
<path d="M100.88 0H75.4C62.478 0 52 10.478 52 23.4V41.08C52 42.8012 53.3988 44.2 55.12 44.2H79.56C92.482 44.2 104 33.722 104 20.8V3.12C104 1.3988 102.601 0 100.88 0ZM70.9904 31.46H66.3V29.4788L70.9904 23.5404V31.46ZM88.14 31.46H83.4496V18.6784L77.1316 26.78H76.9496L70.9956 18.928L66.3052 12.74H72.0824L76.9548 19.2192H77.1368L82.0092 12.74H88.1452V31.46H88.14Z" fill="#07C86B"/>
<path d="M143.333 200.158C136.365 201.395 127.483 200.839 122.606 198.332L120.744 187.839C124.81 189.248 131.222 191.39 138.965 190.018C148.512 188.322 152.849 182.764 150.972 172.182L150.426 169.088C149.219 174.802 143.863 179.124 136.38 180.45C122.704 182.878 112.726 173.648 110.453 160.83C108.087 147.497 114.832 136.005 128.679 133.551C134.441 132.526 140.748 134.071 144.992 138.465L145.038 138.725L146.052 131.445L156.005 129.677V75.3941C156.005 62.4721 145.527 51.9941 132.605 51.9941H23.4C13.0988 51.9941 4.3732 58.6605 1.248 67.9061L9.4796 66.4449C28.652 63.0441 42.3124 74.2137 45.292 91.0201C48.2768 107.832 39.2964 123.016 20.1188 126.416L0 129.994V184.599C0 197.521 10.478 207.999 23.4 207.999H133.38C141.95 207.999 149.417 203.382 153.494 196.512C150.686 198.213 147.3 199.456 143.333 200.163V200.158ZM53.2688 92.8453C53.9708 82.4089 61.1936 74.0317 72.332 72.0505C85.7636 69.6793 97.2452 76.9645 99.8816 94.7797L77.246 98.8045L66.3572 100.739C67.9016 106.043 73.4084 109.069 79.5704 107.977C84.0632 107.182 87.1364 104.717 88.6028 101.612L98.7116 104.124C96.1376 110.879 89.6636 116.37 81.2396 117.868C67.5584 120.301 56.0612 112.938 53.6276 99.2413C53.2376 97.0573 53.1284 94.9045 53.2688 92.8453ZM15.47 199.736L4.6332 138.662L43.94 131.689L45.942 142.958L19.1048 147.721L21.502 161.225L43.6072 157.304L45.5624 168.313L23.4572 172.234L25.9428 186.253L52.78 181.49L54.782 192.758L15.4752 199.731L15.47 199.736ZM95.03 185.483L90.7088 161.142C89.1696 152.453 83.9228 150.898 79.1908 151.74C73.2524 152.791 69.784 157.226 71.1724 165.052L75.4156 188.967L63.0292 191.167L55.0472 146.182L65.3692 144.351L68.406 150.466C70.4184 145.318 74.49 141.756 81.1148 140.581C90.5736 138.902 100.318 143.296 102.762 157.06L107.416 183.294L95.03 185.488V185.483ZM135.491 93.8385C134.186 86.4909 109.434 95.7573 106.543 79.4553C105.014 70.8389 112.138 64.3493 121.852 62.6229C132.746 60.6885 141.32 65.7897 142.854 73.4493L131.513 75.8101C130.551 72.8409 127.598 70.9273 123.292 71.6917C120.167 72.2481 117.619 74.0941 118.05 76.5433C119.34 83.8077 144.456 74.1201 147.467 91.1033C149.058 100.058 141.913 106.464 130.848 108.424C120.375 110.281 110.037 107.499 107.806 96.9169L119.387 94.4261C120.385 98.0817 124.452 99.8861 129.516 98.9865C133.401 98.2949 135.933 96.3657 135.486 93.8333L135.491 93.8385Z" fill="#FF6014"/>
<path d="M86.247 88.5867C84.9834 83.4855 80.1162 80.6151 74.0322 81.6915C68.1198 82.7367 64.2978 87.1671 64.7814 92.3931L86.247 88.5867Z" fill="#FF6014"/>
<path d="M133.23 144.195C125.83 145.505 121.571 151.496 122.85 158.724C124.145 166.035 130.224 170.278 137.624 168.968C144.763 167.699 149.079 161.521 147.795 154.298C146.526 147.159 140.364 142.931 133.224 144.195H133.23Z" fill="#FF6014"/>
<path d="M33.0412 93.1983C30.7948 80.5259 22.168 75.6119 11.4404 77.5151L3.90039 78.8567L10.6136 116.697L18.1536 115.355C28.8812 113.452 35.2876 105.865 33.0412 93.1983Z" fill="#FF6014"/>
</svg>
